<?xml version="1.0" encoding="utf-8"?>
<!-- Generator: Adobe Illustrator 27.9.1, SVG Export Plug-In . SVG Version: 6.00 Build 0)  -->
<svg version="1.1" xmlns="http://www.w3.org/2000/svg" xmlns:xlink="http://www.w3.org/1999/xlink" x="0px" y="0px"
	 viewBox="0 0 454.2 168.8" style="enable-background:new 0 0 454.2 168.8;" xml:space="preserve">
<style type="text/css">
	.st0{fill:#637189;}
	.st1{fill:#2A3559;}
	.st2{fill:#4C72BA;}
	.st3{clip-path:url(#SVGID_00000128471188759365025630000011547456509520731533_);}
	.st4{clip-path:url(#SVGID_00000142859025208614533800000005717304917129333409_);}
	.st5{fill-rule:evenodd;clip-rule:evenodd;fill:#BDCFEB;}
	.st6{fill:#FFFFFF;}
	.st7{fill:#E4E1DF;}
	.st8{fill:#BCCEEA;}
	.st9{fill:#A29D9B;}
	.st10{fill:#BCCDE9;}
</style>
<g id="Layer_1">
	<path class="st0" d="M137.7,157.1v-6h1v6 M137.7,150.1v-6h1v6 M137.7,143.1v-6h1v6 M137.7,136.1v-6h1v6 M137.7,129.1v-6h1v6
		 M137.7,122.1v-6h1v6 M137.7,115.1v-6h1v6 M137.7,108.1v-6h1v6 M137.7,101.1v-6h1v6 M137.7,94.1v-6h1v6 M137.7,87.1v-6h1v6
		 M137.7,80.1v-6h1v6 M137.7,73.1v-6h1v6 M137.7,66.1v-6h1v6 M137.7,59.1v-6h1v6 M137.7,52.1v-6h1v6 M137.7,45.1v-6h1v6 M137.7,38.1
		v-3.2h1v3.2"/>
	<g>
		<g transform="translate(123.5713, 161.104163)">
			<g>
				<path class="st1" d="M36.5-99.6v5.7h12v6.2H29.1V-117H48v6.2H36.5v5.1h11.2v6.1H36.5z"/>
			</g>
		</g>
	</g>
	<g>
		<g transform="translate(141.033976, 161.104163)">
			<g>
				<path class="st1" d="M61.8-87.7h-7.6l-2-5.7H41.2l-2,5.7h-7.4L42.9-117h7.6L61.8-87.7z M43.2-99.5h7.2l-3.6-10.2L43.2-99.5z"/>
			</g>
		</g>
	</g>
	<g>
		<g transform="translate(162.666415, 161.104163)">
			<g>
				<path class="st1" d="M59-87.7l-8-10h-1.5v10h-7.3V-117h10.7c2.3,0,4.3,0.4,6.1,1.2c1.7,0.8,3.1,1.9,4,3.4
					c0.9,1.5,1.4,3.2,1.4,5.1c0,1.9-0.5,3.6-1.4,5.1c-0.9,1.4-2.3,2.6-4.1,3.3l9,11.1H59z M49.5-110.8v7.1h3c1.4,0,2.5-0.3,3.2-1
					c0.8-0.7,1.1-1.5,1.1-2.5c0-1.1-0.4-1.9-1.1-2.6c-0.8-0.7-1.8-1-3.2-1H49.5z"/>
			</g>
		</g>
	</g>
	<g>
		<g transform="translate(182.793982, 161.104163)">
			<g>
				<path class="st1" d="M60.8-87.7h-7.3v-22.7h-7.2v-6.6h21.6v6.6h-7.1V-87.7z"/>
			</g>
		</g>
	</g>
	<g>
		<g transform="translate(199.033946, 161.104163)">
			<g>
				<path class="st1" d="M72.1-105.9v-11h7.3v29.3h-7.3v-11.6H61.6v11.6h-7.3V-117h7.3v11H72.1z"/>
			</g>
		</g>
	</g>
	<g>
		<g transform="translate(221.773986, 161.104163)">
		</g>
	</g>
	<g>
		<g transform="translate(123.5713, 189.802665)">
			<g>
				<path class="st1" d="M43.1-77.6c-2.8,0-5.4-0.6-7.8-1.9c-2.4-1.3-4.3-3-5.8-5.4c-1.4-2.3-2.1-5-2.1-7.9c0-3,0.7-5.6,2.1-7.9
					c1.4-2.3,3.3-4.1,5.8-5.4c2.4-1.3,5-1.9,7.8-1.9c2.8,0,5.4,0.6,7.8,1.9c2.4,1.3,4.3,3.1,5.8,5.4c1.4,2.3,2.1,4.9,2.1,7.9
					c0,3-0.7,5.6-2.1,7.9c-1.4,2.3-3.3,4.1-5.8,5.4C48.5-78.2,45.9-77.6,43.1-77.6z M43.1-84.3c1.6,0,3-0.4,4.2-1.1
					c1.3-0.7,2.2-1.7,3-3c0.7-1.3,1.1-2.8,1.1-4.4c0-1.6-0.4-3.1-1.1-4.4c-0.7-1.3-1.7-2.3-3-3c-1.3-0.7-2.7-1.1-4.2-1.1
					c-1.6,0-3,0.4-4.2,1.1c-1.3,0.7-2.3,1.7-3,3c-0.7,1.3-1.1,2.7-1.1,4.4c0,1.6,0.4,3.1,1.1,4.4c0.7,1.3,1.7,2.3,3,3
					C40.1-84.6,41.5-84.3,43.1-84.3z"/>
			</g>
		</g>
	</g>
	<g>
		<g transform="translate(148.412954, 189.802665)">
			<g>
				<path class="st1" d="M54.9-93.8c1.6,0.6,2.8,1.5,3.6,2.6c0.9,1.2,1.3,2.6,1.3,4.2c0,2.6-1,4.7-3,6.4c-2,1.6-4.9,2.4-8.8,2.4
					H37.4v-29.2h10.2c3.5,0,6.1,0.7,8.1,2.1c1.9,1.4,2.9,3.3,2.9,5.8c0,1.2-0.3,2.4-1,3.4C56.9-95.2,56-94.4,54.9-93.8z M44.7-101.7
					v6.1h2.7c1.2,0,2.2-0.3,2.9-0.9c0.7-0.6,1-1.3,1-2.2c0-0.9-0.3-1.6-1-2.2c-0.7-0.6-1.6-0.9-2.9-0.9H44.7z M48.3-83.8
					c1.3,0,2.3-0.3,3-0.9c0.7-0.6,1.1-1.4,1.1-2.4c0-1-0.4-1.8-1.1-2.4c-0.7-0.6-1.7-0.9-3-0.9h-3.5v6.6H48.3z"/>
			</g>
		</g>
	</g>
	<g>
		<g transform="translate(167.709778, 189.802665)">
			<g>
				<path class="st1" d="M53.6-77.6c-3.5,0-6.3-0.9-8.4-2.6C43.1-82,42-84.5,42-87.7h7.2c0.1,1.3,0.4,2.4,1.2,3.1
					c0.8,0.7,1.8,1.1,3.2,1.1c1.3,0,2.3-0.2,3-0.8c0.7-0.5,1-1.2,1-2c0-0.9-0.4-1.7-1.3-2.2c-0.9-0.5-2.2-1.1-4.1-1.7
					c-2-0.6-3.6-1.2-4.8-1.8c-1.3-0.6-2.4-1.5-3.3-2.8c-0.9-1.2-1.4-2.9-1.4-4.9c0-1.6,0.4-3,1.4-4.3c0.9-1.3,2.2-2.3,3.8-3
					c1.6-0.7,3.5-1.1,5.6-1.1c1.9,0,3.7,0.3,5.3,1c1.7,0.7,3,1.8,4,3.2c1,1.4,1.6,3.2,1.6,5.3h-7.1c0-1-0.4-1.9-1-2.6
					c-0.6-0.7-1.6-1-2.8-1c-1.1,0-1.9,0.2-2.5,0.7c-0.6,0.5-0.9,1.1-0.9,1.9c0,0.9,0.4,1.7,1.3,2.2c0.9,0.5,2.2,1,4.1,1.6
					c2,0.6,3.6,1.2,4.8,1.8c1.3,0.6,2.4,1.5,3.3,2.8c0.9,1.2,1.4,2.9,1.4,4.9c0,1.6-0.4,3-1.3,4.3c-0.9,1.3-2.2,2.3-3.9,3.1
					C58-78,56-77.6,53.6-77.6z"/>
			</g>
		</g>
	</g>
	<g>
		<g transform="translate(185.941499, 189.802665)">
			<g>
				<path class="st1" d="M57.3-90v5.7h12v6.2H49.9v-29.2h18.9v6.2H57.3v5h11.1v6.1H57.3z"/>
			</g>
		</g>
	</g>
	<g>
		<g transform="translate(203.390049, 189.802665)">
			<g>
				<path class="st1" d="M72.6-78.1l-8-9.9h-1.5v9.9h-7.3v-29.2h10.7c2.3,0,4.3,0.4,6.1,1.2c1.7,0.8,3.1,2,4,3.4
					c1,1.5,1.4,3.2,1.4,5.1c0,1.9-0.5,3.6-1.4,5.1c-0.9,1.4-2.3,2.6-4,3.3l9,11.1H72.6z M63.1-101.2v7.1h3c1.4,0,2.5-0.3,3.2-1
					c0.8-0.7,1.2-1.5,1.2-2.6c0-1.1-0.4-1.9-1.2-2.6c-0.8-0.7-1.8-1-3.2-1H63.1z"/>
			</g>
		</g>
	</g>
	<g>
		<g transform="translate(223.501373, 189.802665)">
			<g>
				<path class="st1" d="M73.8-88l6.5-19.4H88L77.1-78.1h-6.8l-10.9-29.2h7.8L73.8-88z"/>
			</g>
		</g>
	</g>
	<g>
		<g transform="translate(244.301893, 189.802665)">
			<g>
				<path class="st1" d="M96.2-78.1h-7.6l-2-5.7h-11l-2,5.7h-7.4l11.1-29.2H85L96.2-78.1z M77.6-90h7.2l-3.6-10.1L77.6-90z"/>
			</g>
		</g>
	</g>
	<g>
		<g transform="translate(265.916902, 189.802665)">
			<g>
				<path class="st1" d="M88.5-78.1h-7.3v-22.6H74v-6.6h21.6v6.6h-7.1V-78.1z"/>
			</g>
		</g>
	</g>
	<g>
		<g transform="translate(282.143717, 189.802665)">
			<g>
				<path class="st1" d="M89.5-78.1h-7.3v-29.2h7.3V-78.1z"/>
			</g>
		</g>
	</g>
	<g>
		<g transform="translate(291.823252, 189.802665)">
			<g>
				<path class="st1" d="M99.2-77.6c-2.8,0-5.4-0.6-7.8-1.9c-2.4-1.3-4.3-3-5.8-5.4c-1.4-2.3-2.1-5-2.1-7.9c0-3,0.7-5.6,2.1-7.9
					c1.4-2.3,3.3-4.1,5.8-5.4c2.4-1.3,5-1.9,7.8-1.9c2.8,0,5.4,0.6,7.8,1.9c2.4,1.3,4.3,3.1,5.8,5.4c1.4,2.3,2.1,4.9,2.1,7.9
					c0,3-0.7,5.6-2.1,7.9c-1.4,2.3-3.3,4.1-5.8,5.4C104.6-78.2,102-77.6,99.2-77.6z M99.2-84.3c1.6,0,3-0.4,4.2-1.1
					c1.3-0.7,2.2-1.7,3-3c0.7-1.3,1.1-2.8,1.1-4.4c0-1.6-0.4-3.1-1.1-4.4c-0.7-1.3-1.7-2.3-3-3c-1.3-0.7-2.7-1.1-4.2-1.1
					c-1.6,0-3,0.4-4.2,1.1c-1.3,0.7-2.3,1.7-3,3c-0.7,1.3-1.1,2.7-1.1,4.4c0,1.6,0.4,3.1,1.1,4.4c0.7,1.3,1.7,2.3,3,3
					C96.2-84.6,97.6-84.3,99.2-84.3z"/>
			</g>
		</g>
	</g>
	<g>
		<g transform="translate(316.664912, 189.802665)">
			<g>
				<path class="st1" d="M114.1-89.8v-17.6h7v29.2H116l-15.5-17.6v17.6h-7v-29.2h5.1L114.1-89.8z"/>
			</g>
		</g>
	</g>
	<g>
		<g transform="translate(125.323825, 214.638534)">
			<g>
				<path class="st2" d="M27.7-69.9H35c5.2,0,7.7-3.7,7.7-8.6c0-5.6-3.3-8.4-7.7-8.4h-7.2V-69.9z M31.4-73v-10.8H34
					c3.7,0,4.9,2.2,4.9,5.6c0,3.8-2.1,5.1-4.3,5.1H31.4z"/>
			</g>
		</g>
	</g>
	<g>
		<g transform="translate(144.530003, 214.638534)">
			<g>
				<path class="st2" d="M34.1-69.9H38l1.5-3.8h7l1.5,3.8h3.9l-7.2-17.1h-3.4L34.1-69.9z M40.8-77.1l2.2-5.5l2.2,5.5H40.8z"/>
			</g>
		</g>
	</g>
	<g>
		<g transform="translate(165.796253, 214.638534)">
			<g>
				<path class="st2" d="M46.1-69.9h3.6v-13.7h4.9v-3.3H41.2v3.3h4.9V-69.9z"/>
			</g>
		</g>
	</g>
	<g>
		<g transform="translate(183.82012, 214.638534)">
			<g>
				<path class="st2" d="M47.2-69.9h3.9l1.5-3.8h7l1.5,3.8H65l-7.2-17.1h-3.4L47.2-69.9z M53.9-77.1l2.2-5.5l2.2,5.5H53.9z"/>
			</g>
		</g>
	</g>
	<g>
		<g transform="translate(205.086371, 214.638534)">
		</g>
	</g>
	<g>
		<g transform="translate(216.285142, 214.638534)">
			<g>
				<path class="st2" d="M58-69.9h3.6v-6.9h7.8v6.9h3.6v-17.1h-3.6v6.8h-7.8v-6.8H58V-69.9z"/>
			</g>
		</g>
	</g>
	<g>
		<g transform="translate(235.545051, 214.638534)">
			<g>
				<path class="st2" d="M71.6-69.6c4.4,0,7.2-2.2,7.2-6.9v-10.5h-3.6v10.5c0,2.6-0.9,3.7-3.5,3.7c-3,0-3.5-1.8-3.5-3.7v-10.5h-3.6
					v10.5C64.5-71.8,67.1-69.6,71.6-69.6z"/>
			</g>
		</g>
	</g>
	<g>
		<g transform="translate(254.249635, 214.638534)">
			<g>
				<path class="st2" d="M70.7-69.9h8.7c3.1,0,6-1.5,6-4.9c0-2.1-1-3.7-3.1-4.3c1.5-0.7,2.3-1.8,2.3-3.6c0-3.2-2.2-4.2-5.4-4.2h-8.4
					V-69.9z M74.3-72.8v-4.7h4.6c1.6,0,2.7,0.7,2.7,2.4c0,1.8-1.3,2.2-2.8,2.2H74.3z M74.3-80v-4h4c1.3,0,2.6,0.4,2.6,2
					c0,1.4-1,2-2.3,2H74.3z"/>
			</g>
		</g>
	</g>
	<g>
		<defs>
			<rect id="SVGID_1_" x="13.9" y="47.9" width="105.9" height="105.3"/>
		</defs>
		<clipPath id="SVGID_00000165217351465156361840000009188897441047815605_">
			<use xlink:href="#SVGID_1_"  style="overflow:visible;"/>
		</clipPath>
		<g style="clip-path:url(#SVGID_00000165217351465156361840000009188897441047815605_);">
			<path class="st1" d="M119.5,100.1c0,1.7-0.1,3.4-0.2,5.1c-0.2,1.7-0.4,3.4-0.8,5c-0.3,1.7-0.8,3.3-1.3,4.9
				c-0.5,1.6-1.1,3.2-1.7,4.8c-0.7,1.6-1.4,3.1-2.2,4.6c-0.8,1.5-1.7,3-2.6,4.4c-1,1.4-2,2.8-3.1,4.1c-1.1,1.3-2.2,2.6-3.5,3.8
				c-1.2,1.2-2.5,2.3-3.8,3.4s-2.7,2.1-4.1,3c-1.4,0.9-2.9,1.8-4.4,2.6c-1.5,0.8-3.1,1.5-4.7,2.2s-3.2,1.2-4.8,1.7
				c-1.6,0.5-3.3,0.9-5,1.2c-1.7,0.3-3.4,0.6-5.1,0.8c-1.7,0.2-3.4,0.2-5.1,0.2s-3.4-0.1-5.1-0.2c-1.7-0.2-3.4-0.4-5.1-0.8
				c-1.7-0.3-3.3-0.7-5-1.2c-1.6-0.5-3.3-1.1-4.8-1.7c-1.6-0.7-3.1-1.4-4.7-2.2c-1.5-0.8-3-1.7-4.4-2.6c-1.4-0.9-2.8-2-4.1-3
				c-1.3-1.1-2.6-2.2-3.8-3.4c-1.2-1.2-2.4-2.5-3.5-3.8c-1.1-1.3-2.1-2.7-3.1-4.1c-1-1.4-1.8-2.9-2.7-4.4c-0.8-1.5-1.5-3-2.2-4.6
				c-0.7-1.6-1.2-3.2-1.7-4.8c-0.5-1.6-0.9-3.3-1.2-4.9c-0.3-1.7-0.6-3.3-0.8-5c-0.2-1.7-0.3-3.4-0.3-5.1c0-1.7,0.1-3.4,0.3-5.1
				c0.2-1.7,0.4-3.4,0.8-5c0.3-1.7,0.8-3.3,1.2-4.9c0.5-1.6,1.1-3.2,1.7-4.8c0.7-1.6,1.4-3.1,2.2-4.6c0.8-1.5,1.7-3,2.7-4.4
				c1-1.4,2-2.8,3.1-4.1c1.1-1.3,2.2-2.6,3.5-3.8c1.2-1.2,2.5-2.3,3.8-3.4c1.3-1.1,2.7-2.1,4.1-3c1.4-0.9,2.9-1.8,4.4-2.6
				c1.5-0.8,3.1-1.5,4.7-2.2c1.6-0.7,3.2-1.2,4.8-1.7c1.6-0.5,3.3-0.9,5-1.2c1.7-0.3,3.4-0.6,5.1-0.8c1.7-0.2,3.4-0.2,5.1-0.2
				s3.4,0.1,5.1,0.2c1.7,0.2,3.4,0.4,5.1,0.8c1.7,0.3,3.3,0.7,5,1.2c1.6,0.5,3.3,1.1,4.8,1.7c1.6,0.7,3.1,1.4,4.7,2.2
				c1.5,0.8,3,1.7,4.4,2.6c1.4,0.9,2.8,2,4.1,3s2.6,2.2,3.8,3.4c1.2,1.2,2.4,2.5,3.5,3.8c1.1,1.3,2.1,2.7,3.1,4.1s1.8,2.9,2.6,4.4
				c0.8,1.5,1.5,3,2.2,4.6c0.7,1.6,1.2,3.2,1.7,4.8c0.5,1.6,0.9,3.3,1.3,4.9c0.3,1.7,0.6,3.3,0.8,5
				C119.5,96.7,119.5,98.4,119.5,100.1z"/>
		</g>
	</g>
	<g>
		<defs>
			<rect id="SVGID_00000154399494367403902080000008033214233269717436_" x="13.9" y="47.9" width="105.9" height="104"/>
		</defs>
		<clipPath id="SVGID_00000060709579481434398630000003409610298390768037_">
			<use xlink:href="#SVGID_00000154399494367403902080000008033214233269717436_"  style="overflow:visible;"/>
		</clipPath>
		<g style="clip-path:url(#SVGID_00000060709579481434398630000003409610298390768037_);">
			<path class="st5" d="M52.2,80.4c4.5,1.4-5.1,6-2,2.9c0.8-1-0.3-2.3,1.7-2.5l0.1-0.2L52.2,80.4z M43.9,62.4c3.2-1,3.5-2.6,6.8-4.1
				c0.7-1.6,2.2-2.2,3.5-3c-2.9,0.5-0.6-2.2-3.6,0.1c1.3-2.2-4-0.7-0.3-0.8c-1.8,2.1-5.7,5.4-8.7,7.1c-0.5-0.4,3.7-3.9,0-0.9
				c-1.2,2.1-4.8,2.8-2.3,0.3c1.8-0.9,1.1-3.1,2.5-1.9c2.3-1,1.8-1.2,4-2.4c-1.9-0.4-4.3,1.6-6.3,2.1c5.2-4.2-3.3-0.7-4.3,1.8
				c-1.9,1.9-6.4,5.8-2,2.4c1.1,0.6,6.6-5.9,6-2.5c-1.2,1.1-1.7,2.1-3.1,2.8c-2.3,2.4,4.6-2.2,0.3,1.3c-2.8,1.9-2.4,5.5-5.2,7.3
				c-1.8,0.6-2.3,5.3-2.8,3.6c-2.5-2.3,5.2-4.3,0.8-4.1c-0.3-0.9-0.6,1.3-1.5,0c-1.2,1.6,0.3,3.8-2.1,3.4c-2.2,0,2.9-2.5-1.1-1.8
				C24,72.9,23,74.6,22,75.9c-2.9,2.1-3.8,5.3-4.9,8.8c-3.2,10.3-3.1,24.1,1,33.8c9.1,21.4,28.7,34.3,51.2,33.3
				c-2.1-0.9-6.9-3.9-2.5-5.8c-2.5-1.8-1.3-4.4-4.8-6.1c2.3-2,0.5-4.8-2.4-4.2c-2.5,0.4-3.9-2.7-6.6-1.4c-3.7,0.2-7.8-1.1-11.2-2.8
				c-3.2-3.1-6.7-6.9-6.5-11.2c0.8-2.3,1.4-3.8,0.8-6c2.7-2.4,3.9-6.2,7.5-6.1c-0.7-3.1,8-6.6,2.2-6.8c-0.1-3,0.3-3.9,1.5-6.8
				c-0.4-5.1,5.2,1.3,6.5-1.6c2.7-3-4.8-6.4,1.1-5.5c2.2,0,3-2,0.1-1.1c-2.3-0.2-4.3,0.4-1.4-1.5c-2.3-0.7,2.7-1.6,0.2-3.2
				c-0.1-0.9,1-1.3-0.2-1.2c-0.6-0.9,1.8-2-0.3-2.5c1.1-3.2,1-0.6,1.7-1c0.9-0.2,2,1,0.6,2.3c1.3,2.3,2.9,4.9,2.1,6.5
				c1.3-1.1,3.9-1.9,4.6-2.9c-1.9-3.7,3.9-5.4,1.3-2.1c-1.1,2.4,1.9,2.1,0,0.6c1.6,0.4,2.6-1.3,1.2-3c-0.2-2.4-3,2.1-3.6-0.8
				c-1.8-4.3,4.8-5,5.5-8.7c-1.6,0.3,3.7-4.9,6-2.4c2.5,0.1,7.5,3.2,2.3,2.6c0.2-0.2,0.8,2.8,2.6,2.4c2,0.5-1.4-1.4,0.4-1.3
				c-0.4-1.4,1.3-2.4-0.5-3.6c3-0.4,0.5,1.2,2.5,2.1c2.1,1.4-1.2-4.8,1.8-2.4c3.8-4-4.5-0.3-4.6-3.9c-1.7-2.8,1-4.9,1-1
				c0.7,2.8,4,2,6.2,2.4c1,0.2-5.2-2.7-3.2-3.6c1.4-0.5,2,0,1.1-0.9c-0.6-1-1.8-2.3-2.4-3.3c-3.8-2.1,4.6,0,1.8-2.2
				c-1.3,0,1-2.2-2.2-1.7c-2.2,1.5-6.4-2.4-2-0.2c3.4,0.3-3.5-2.9-5.2-3.1c-5.4-0.6-9.6-0.1-14.9,0.6c-2.9,0.4-2.4,2.4-0.2,2
				c-0.6,1.7-3.5,1.2-0.4,1.4c-2,0.8,4,1.1,1.3,2.8c1.6,0.8,4.2,2,2.4,2.3c3.5-0.1-2.5,2.8-2.6,4.2c-2.4,0.9-4.4,3.4-5.3,2.5
				c1.8,1.3-1.7,1.6-2.6,1.1c-2.3-0.8-5.7,1.5-8,3.1C38,71.2,40.8,63.8,43.9,62.4z M92.6,144.3c1.3-2.7,3.7-4.5,6.3-6.5
				c3.2-1.2-2.2,4.6-4,5.3C94.2,143.6,93.5,144.1,92.6,144.3z M93.2,140.5c-0.3,3.9-5.9,4-7.7,6.8c-1.8,0.9-5.6,3.4-1.1,1.8
				c11.6-4.2,17.7-10.3,21.5-14.1c8.5-8.8,13.9-22,13.6-36.5c-0.4-1.1-2.4-10.3-2.7-5.9c0,4.7-0.1,9.3,0.2,13.9
				c-1.3,6.2-3.2-7.2-3.6-3.8c-1.4-0.3-1.5-1-3.2-1.9c-1.2,1.9-4,4.2-5.7,2.8c-1.2,3.6-4.2,0.5-5.4-0.4c-2.9,2.5,4.1,5.2,4.9,3.3
				c0.9-2.8,0.4-2.2,2.1-1.2c2.2,0.5,0.4,4.8-0.3,6.7c-1.8,2.5-2.8,6-5.8,8c-1.7,2.3-4,3.5-4-0.6c-2.1-3-4.7-3.7-6.4-7.1
				c-0.2-2.5-2.3-3.2-2.9-1.7c-1.4-0.9,2.2,4.1,3,4.8c1.3,3.8,3.8,6.4,7.5,7.5c0.3,5.1,8.2-7.8,6.2-1.2c-1.4,5-5.3,8.5-8,12.8
				C94,136.5,91.9,138.6,93.2,140.5z M85.5,139.2c1.7,0.1,3.9-2.8,1.8-2.6C85.9,136.7,85.9,138.3,85.5,139.2z M66.6,59.6
				c1.4-2,2.7,0.3,1.3,0.5c1.6,1.8-1.4-0.6-1,2.3C66.5,62.2,64.4,57.7,66.6,59.6z M69.8,71c0.3,2-3.7,3.4-0.3,4.9
				c-0.3,2.1-2,5.7-3.7,5.7c-2.4,1.7,2.9,1.5,3.7,0.2c1.9,0.8,1.5-0.9,1.9-1.9c-0.8-2.4,2.8,0.2,0.8-2.6c-2.1,1.8,1.3-2,2.7-1.4
				c-0.6-1.6-5,2.5-4.3-0.8C67.7,73.2,75.2,69.8,69.8,71z M79.5,90.6c0.2,1.1-0.3,3-1.2,4.4c2.1,2.6,6.4-2,9.6,0
				c4-2.5-4.7-6.2-5.5-2.2c-1.7-1.3,1-3.1-1.7-2.7C80.1,89.9,80.1,88.8,79.5,90.6z M95.7,95.3c2.7,1.5,5.6-1.3,2.3-3
				c-1.4-1.8-1.8-3.3-3.8-4.1c-1-0.4,2.1-4.7-1.2-2.7c-2.3,1.1-1.2,4.2,0.1,5.2C96.4,92.6,96,91.4,95.7,95.3z M62.8,100.8
				c-2.2,1.4-2-2-1.1-3c-0.2-1.1,1.8-4,1.1-0.7C62.2,98.1,63.5,99.6,62.8,100.8z M49.2,102c1.5,3.7,8.7-0.5,12.4,1.5
				c1.8-0.7,3-0.3,2.3,1.7c-2.6,0.9,0.8,2.3,1.7,2.1c2.5,0.3,3.1,2.6,5.9,2.9c2.2,0.6,0.6-4.9,4.4-3.1c0.8,1.3,2.6,0.6,4.1,1
				c2.5,0.9,3.8-2.2,6.3-1.8c0.8-1.9,0.6-7.6,0.3-6.7c-1.5,1.3-3.9,1.4-5.8,2.4c-1-0.8-2,0.9-2.3-1.7c-0.7-1.5-0.8-4.1-3.6-1.6
				c-0.8,0.2,2.5,2,1.9,3c-1.7-1.1-1.5-0.2-1.8,1.3c-1.6-0.9-2.8-5.1-5-6.9c-2.4-1.1-2.6-3.4-4.2-3.8c-1.3,3.4,5.7,5.7,4.6,6.7
				c-2.8-1.7,1.3,3.2-2.4,3.1c0,2.6-5-1.7-0.6-0.4c3.2-1.9-2.5-4.1-3.6-5.9c-1-4-3.6,2-5.6-1.3c-0.2,1.8-4.4,3.1-4,5.8
				C52.7,101.6,51.4,102.1,49.2,102z M49.9,69.4c0.1,0,1.8-2.9,1.6-1.2c4.1,0.5-0.2,4.4-2.4,1.8L49.9,69.4z"/>
		</g>
	</g>
</g>
<g id="Layer_2">
	<path class="st6" d="M103,32.9L103,32.9C103,32.9,102.9,32.9,103,32.9L103,32.9c-0.1,0.1-0.2,0.2-0.2,0.2c-0.1,0.1-0.3,0.2-0.3,0.3
		c-0.2,0.5-0.7,0.9-0.3,1.4c0.2,0.4,0.6,0.7,1,0.8c0,0.1,0.1,0.1,0.1,0.2c-0.5,0.6-1,1.2-1.4,1.9c-0.1,0-0.1,0-0.2-0.1
		c-1.8-1.1-3.7-1.9-5.7-2.4c-2.2-0.6-4.5-0.7-6.8-0.1c-0.2,0-0.4,0-0.4,0.3c0,0.2,0,0.4,0.1,0.6c1.1,2.7,2.5,5.2,4.2,7.6
		c0.7,1,1.5,1.8,2.2,2.7c-0.4,0.7-0.8,1.3-1.2,2c-0.1,0-0.2,0-0.3,0c-0.7,0.1-1.3,0.8-1.2,1.5c0.1,0.7,0.8,1.3,1.5,1.1
		c0.8-0.1,1.2-0.9,1.1-1.6c0-0.1,0-0.3,0-0.4c0.5-0.4,1-0.9,1.6-1.3c1.2,1.2,2.6,2.2,4.1,3c1.9,1,3.9,1.6,6.1,1.8
		c0.6,0.1,1.2,0.1,1.8,0c0.2-0.7,0.4-1.4,0.4-2.1c0.1-2.2-0.5-4.3-1.6-6.2c-0.8-1.5-1.9-2.9-3-4.2c0.6-0.6,1.3-1.1,1.9-1.8
		c0.1,0.1,0.3,0.2,0.4,0.3c0.8,0.8,1.3,0.6,2,0c0.9-0.7,1.7-1.7,2.5-2.6c0.6,0.4,1.2,0.8,1.8,1.2c-0.3,0.4-0.6,0.8-1,1.2
		c-0.3,0.3-0.2,0.4,0.1,0.6c3.6,2.9,7.1,5.8,10.6,8.7c0.2,0.2,0.4,0.2,0.6-0.1c1.8-2.2,3.5-4.5,5.4-6.6c0.2-0.3,0.3-0.4-0.1-0.7
		c-1.3-1-2.6-2.1-3.8-3.1c-2.2-1.8-4.4-3.7-6.6-5.5c-0.3-0.2-0.4-0.2-0.6,0.1c-0.5,0.6-1,1.2-1.5,1.7c-0.2,0-0.3-0.1-0.4-0.2
		c-0.5-0.3-1-0.6-1.5-0.9c0.2-0.3,0.5-0.6,0.7-0.9c0.7-0.9,1.5-1.7,2.1-2.7c0.4-0.1,0.3-0.4,0.2-0.6c-0.1-0.3-0.4-0.6-0.7-0.7
		c0,0-0.1-0.1-0.1-0.1l0,0c-0.1-0.1-0.1-0.2-0.2-0.3c0.1-0.1,0.2-0.3,0.4-0.4c0.2-0.3,0.4-0.5,0.2-0.9c0.1-0.1,0.1-0.2,0.2-0.2
		c0.6-0.7,0.6-1-0.1-1.6c-0.3-0.3-0.8-0.5-1-0.9c0.3-0.3,0.6-0.6,0.8-1c0.1-0.1,0.1-0.3,0-0.4c-0.1-0.1-0.2,0-0.3,0
		c-0.3,0.3-0.7,0.6-1,0.8c-0.2,0-0.3-0.2-0.5-0.3c-1.1-0.8-1.1-0.8-1.9,0.3c-0.3,0-0.6,0.1-0.8,0.4c-0.1,0.2-0.3,0.4-0.4,0.6
		c-1-0.7-0.9-0.9-1.8,0.3c-0.7,0.9-1.4,1.8-2.1,2.6c-0.7-0.7-1.5-1.2-2.3-1.7c0.4-0.5,0.9-1.1,1.3-1.6c0.2-0.2,0.2-0.3,0-0.5
		c-3.5-2.8-7-5.7-10.5-8.6c-0.5-0.4-0.5-0.4-1,0.1c-1.8,2.1-3.4,4.3-5.2,6.4C90,20.8,90,21,90.2,21.1c3.5,2.9,7,5.9,10.4,8.8
		c0.2,0.2,0.3,0.2,0.5-0.1c0.4-0.5,0.9-1,1.3-1.5c0.1,0,0.2,0.1,0.3,0.1c0.7,0.7,1.5,1.2,2.2,1.9c-0.6,0.8-1.1,1.5-1.7,2.3l0,0
		C103.2,32.6,103.1,32.7,103,32.9l0.1-0.1C103.1,32.8,103,32.8,103,32.9z"/>
	<path class="st1" d="M104.5,40c1.1,1.3,2.2,2.6,3,4.2c1,2,1.7,4,1.6,6.2c0,0.7-0.2,1.4-0.4,2.1c-0.2,0-0.4-0.2-0.6-0.3
		c-1-0.6-2-1.3-3-1.9c-1.1-0.7-2.2-1.4-3.2-2.1c-1.1-0.7-2.1-1.5-3.2-2.3c-0.7-0.5-1.2-1.2-2-1.6c-0.2-0.5-0.7-0.8-1.1-1.1
		c-1.8-1.8-3.4-3.9-5-5.9c-0.5-0.7-1-1.4-1.8-1.8c0-0.3,0.3-0.2,0.4-0.3c2.3-0.6,4.5-0.5,6.8,0.1c2,0.5,3.9,1.3,5.7,2.4
		c0.1,0,0.1,0,0.2,0.1C102.9,38.4,103.7,39.2,104.5,40z M97.3,38.8c-0.1,0-0.3,0-0.6,0.1c-0.4,0.2-0.5,0.3-0.2,0.6
		c0.2,0.3,0.5,0.4,0.8,0.5c0.3,0.1,0.6,0.2,0.8,0.3c1.8,1.1,3.3,2.6,4.6,4.3c0.4,0.4,0.7,0.9,1.2,1.2c0.1,0.1,0.3,0.2,0.5,0.1
		c0.2-0.1,0.1-0.3,0.1-0.5c0-1-0.6-1.8-1.3-2.5c-1.1-1-2.2-2.1-3.3-3.2C99.2,39.2,98.4,38.8,97.3,38.8z"/>
	<path class="st1" d="M102.4,28.3c-0.4,0.5-0.9,1-1.3,1.5c-0.2,0.2-0.3,0.2-0.5,0.1c-3.5-2.9-6.9-5.9-10.4-8.8
		C90,21,90,20.8,90.1,20.6c1.8-2.1,3.4-4.3,5.2-6.4c0.4-0.5,0.4-0.5,1-0.1c3.5,2.9,7,5.7,10.5,8.6c0.2,0.2,0.2,0.3,0,0.5
		c-0.4,0.5-0.9,1.1-1.3,1.6c-0.2,0.2-0.4,0.4-0.6,0.7c-0.7,0.7-1.3,1.5-1.9,2.3C102.8,27.9,102.6,28.1,102.4,28.3z M103.2,20.9
		c0,0,0-0.1,0-0.1c-0.4-0.5-0.9-0.9-1.4-1c-0.5-0.1-0.6,0.4-0.8,0.7c-0.2,0.3,0.1,0.4,0.3,0.5c0.3,0.2,0.6,0.5,1,0.7
		C102.6,21.8,103.2,21.4,103.2,20.9z M100.5,18.7c0,0,0-0.1-0.1-0.2c-0.4-0.4-0.8-0.8-1.4-1c-0.5-0.1-0.7,0.3-0.8,0.7
		c-0.2,0.3,0.1,0.4,0.3,0.5c0.3,0.2,0.6,0.4,0.9,0.6C99.9,19.6,100.6,19.2,100.5,18.7z M104.8,23.5c0.4,0,0.6-0.3,0.8-0.5
		c0.1-0.2,0.1-0.4-0.1-0.5c-0.4-0.3-0.8-0.6-1.2-0.9c-0.3-0.2-0.6,0-0.7,0.2c-0.1,0.2-0.5,0.5-0.2,0.7
		C103.8,22.9,104.3,23.2,104.8,23.5z M93.4,22.2c0.2,0,0.5-0.1,0.6-0.4c0.1-0.3,0-0.5-0.2-0.6c-0.4-0.3-0.8-0.6-1.2-0.8
		c-0.2-0.1-0.4-0.1-0.6,0.1c-0.1,0.2-0.3,0.4-0.2,0.7C91.9,21.4,93,22.2,93.4,22.2z M96.1,18.8c0.3,0,0.5-0.1,0.7-0.4
		c0.1-0.2,0.1-0.3,0-0.5c-0.3-0.4-0.7-0.8-1.2-1c-0.3-0.1-0.5-0.1-0.8,0.2c-0.2,0.2-0.3,0.6-0.1,0.8C95,18.4,95.5,18.7,96.1,18.8z
		 M93.9,18.6c-0.4,0-0.5,0.3-0.7,0.6c-0.1,0.4,0.1,0.5,0.3,0.6c0.3,0.2,0.7,0.4,1,0.6c0.2,0.1,0.4,0.2,0.6,0
		c0.2-0.2,0.4-0.5,0.3-0.8C95.3,19.4,94.2,18.6,93.9,18.6z M99.1,20.2c0-0.2-0.1-0.2-0.2-0.3c-0.3-0.2-0.6-0.4-0.8-0.6
		c-0.5-0.4-0.6-0.4-1,0.2c-0.4,0.5-0.4,0.6,0.1,0.9c0.2,0.2,0.5,0.4,0.7,0.5C98.4,21.1,99.1,20.7,99.1,20.2z M102.8,22.9
		c-0.1,0-0.1,0-0.2,0.1c-0.6,0.4-0.6,1-0.1,1.4c0.2,0.2,0.4,0.3,0.7,0.4c0.3,0.2,0.8,0,1-0.4c0.2-0.4-0.1-0.5-0.3-0.7
		c-0.3-0.2-0.5-0.4-0.8-0.6C103,23.1,102.9,23,102.8,22.9z M97.5,17.4c0.2,0,0.5-0.1,0.6-0.3c0.1-0.2,0-0.4-0.1-0.6
		c-0.3-0.4-0.7-0.7-1.1-0.9c-0.2-0.1-0.5-0.1-0.7,0.1c-0.2,0.2-0.2,0.5-0.2,0.8C96,16.7,97.2,17.4,97.5,17.4z M100.9,23.1
		c0.4,0,0.7-0.3,0.8-0.6c0.1-0.3-0.1-0.4-0.3-0.6c-0.3-0.2-0.6-0.4-0.9-0.6c-0.2-0.1-0.4-0.2-0.5,0c-0.2,0.3-0.7,0.5-0.4,0.9
		C99.9,22.6,100.4,22.9,100.9,23.1z M97.6,21.8c-0.2-0.5-0.7-0.8-1.1-1c-0.5-0.2-0.7,0.3-0.9,0.6c-0.2,0.2-0.2,0.4,0.1,0.6
		c0.3,0.2,0.6,0.4,1,0.6C97.1,22.7,97.6,22.4,97.6,21.8z M98.9,22.9c-0.3,0.1-0.4,0.3-0.7,0.6c-0.2,0.2-0.2,0.4,0.1,0.6
		c0.3,0.2,0.7,0.4,1,0.6c0.2,0.1,0.4,0.1,0.6,0c0.2-0.2,0.4-0.4,0.4-0.7C100.2,23.6,99.3,22.9,98.9,22.9z M102.1,26.6
		c0.3,0,0.5-0.3,0.6-0.5c0.1-0.2,0.1-0.5-0.1-0.6c-0.2-0.2-0.4-0.4-0.6-0.5c-0.5-0.4-1.3,0-1.4,0.6c0,0.1,0,0.2,0,0.2
		C101.1,26.1,101.6,26.3,102.1,26.6z M98.3,26.3c0.3,0,0.5-0.1,0.7-0.4c0.1-0.2,0-0.4-0.1-0.6c-0.3-0.3-0.6-0.6-1-0.8
		c-0.2-0.1-0.5-0.2-0.6,0.1c-0.2,0.2-0.4,0.6-0.2,0.8C97.4,25.8,97.8,26.1,98.3,26.3z M95,22.3c-0.2,0-0.5,0-0.5,0.2
		c0,0.3-0.4,0.5,0,0.8c0.3,0.3,0.7,0.5,1,0.7c0.3,0.2,0.5,0,0.7-0.1c0.2-0.1,0.2-0.3,0.1-0.5C96,22.9,95.6,22.5,95,22.3z
		 M100.7,28.1c0.3,0,0.6-0.1,0.7-0.4c0.1-0.2,0-0.4-0.2-0.6c-0.3-0.3-0.5-0.6-0.9-0.7c-0.2-0.1-0.5-0.2-0.7,0
		c-0.2,0.2-0.3,0.6-0.2,0.8C99.8,27.7,100.3,27.9,100.7,28.1z"/>
	<path class="st1" d="M116.2,33.4c0.5-0.6,1-1.1,1.5-1.7c0.2-0.3,0.4-0.3,0.6-0.1c2.2,1.9,4.4,3.7,6.6,5.5c1.3,1.1,2.5,2.1,3.8,3.1
		c0.3,0.2,0.3,0.4,0.1,0.7c-1.9,2.1-3.6,4.4-5.4,6.6c-0.2,0.3-0.3,0.2-0.6,0.1c-3.5-2.9-7.1-5.8-10.6-8.7c-0.3-0.2-0.3-0.4-0.1-0.6
		c0.3-0.4,0.6-0.8,1-1.2c0.2-0.2,0.4-0.4,0.6-0.7c0.6-0.7,1.2-1.4,1.8-2.2C115.7,34,115.9,33.7,116.2,33.4z M114.7,40
		c0.2,0,0.8-0.3,0.9-0.5c0.3-0.5,0.3-0.5-0.2-0.9c-0.2-0.1-0.4-0.3-0.6-0.4c-0.5-0.4-1.3-0.1-1.6,0.4c-0.1,0.1-0.1,0.3,0,0.4
		C113.3,39.1,114.4,40,114.7,40z M118.3,40.8c0-0.2-0.1-0.3-0.3-0.4c-0.3-0.2-0.5-0.3-0.8-0.5c-0.6-0.5-1-0.2-1.5,0.3
		c-0.2,0.3-0.2,0.5,0.1,0.8c0.3,0.2,0.7,0.5,1,0.7c0.3,0.3,0.6,0,0.9-0.1C118,41.4,118.2,41.1,118.3,40.8z M119.3,41.8
		c-0.3,0-0.9,0.5-1,0.8c0,0.2,0,0.3,0.1,0.4c0.4,0.3,0.8,0.7,1.2,0.9c0.4,0.2,0.9-0.2,1.2-0.7c0.2-0.4-0.2-0.5-0.4-0.6
		c-0.3-0.2-0.6-0.4-0.8-0.6C119.5,41.9,119.4,41.8,119.3,41.8z M115.7,36.4c-0.4,0.1-0.8,0.4-1.1,0.8c-0.1,0.2,0,0.3,0.1,0.4
		c0.4,0.3,0.8,0.6,1.1,0.8c0.3,0.2,0.6,0,0.7-0.2c0.2-0.2,0.6-0.5,0.5-0.9C117,37.1,116,36.4,115.7,36.4z M123.1,45.1
		c0,0,0-0.1,0-0.1c-0.1-0.2-1.2-1.1-1.5-1c-0.3,0.1-0.7,0.2-0.9,0.5c-0.2,0.3,0.1,0.5,0.3,0.7c0.2,0.3,0.6,0.5,0.9,0.7
		C122.5,46.2,123,45.8,123.1,45.1z M118.1,38.3c-0.3,0.1-0.6,0.2-0.8,0.5c-0.3,0.3-0.3,0.5,0,0.7c0.3,0.2,0.7,0.5,1,0.7
		c0.3,0.2,0.5,0.1,0.7-0.1c0.3-0.2,0.5-0.5,0.5-0.9C119.5,39,118.4,38.2,118.1,38.3z M120.7,40.4c-0.3,0-0.6,0.3-0.8,0.5
		c-0.3,0.3-0.3,0.5,0.1,0.7c0.3,0.2,0.7,0.5,1,0.7c0.3,0.2,0.5,0.1,0.7-0.1c0.2-0.3,0.6-0.5,0.5-0.9C122,41.1,121,40.4,120.7,40.4z
		 M118.5,35.8c0-0.2-0.1-0.3-0.2-0.3c-0.3-0.2-0.6-0.3-0.9-0.6c-0.4-0.4-0.8-0.1-1.2,0.4c-0.3,0.4-0.1,0.7,0.2,0.9
		c0.2,0.2,0.4,0.3,0.6,0.4c0.3,0.2,0.5,0.2,0.8,0C118.1,36.4,118.3,36.1,118.5,35.8z M124.3,43.7c0-0.2,0-0.3-0.1-0.4
		c-0.3-0.2-0.5-0.4-0.8-0.6c-0.4-0.2-0.8-0.1-1.1,0.1c-0.3,0.2-0.3,0.5-0.1,0.7c0.3,0.3,0.6,0.6,0.9,0.8c0.3,0.2,0.6,0.2,0.9,0.1
		C124.3,44.3,124.4,44,124.3,43.7z M120.9,37.7c0-0.2-0.1-0.3-0.2-0.4c-0.3-0.2-0.5-0.3-0.8-0.5c-0.5-0.3-0.8-0.2-1.1,0.2
		c-0.3,0.4-0.3,0.6,0.2,1c0.2,0.1,0.4,0.3,0.5,0.4c0.2,0.2,0.5,0.2,0.7,0C120.5,38.3,120.7,38,120.9,37.7z M124.9,42.9
		c0.3-0.1,0.6-0.2,0.7-0.5c0.1-0.3,0.1-0.6-0.3-0.8c-0.4-0.2-0.7-0.4-1-0.6c-0.2-0.1-0.5-0.2-0.6,0.1c-0.2,0.2-0.5,0.5-0.3,0.8
		C123.8,42.3,124.4,42.7,124.9,42.9z M123.5,39.9c0-0.2-0.1-0.3-0.3-0.4c-0.3-0.2-0.5-0.3-0.8-0.5c-0.5-0.3-0.7-0.3-1.1,0.2
		c-0.3,0.4-0.1,0.7,0.2,1c0.2,0.1,0.4,0.3,0.5,0.4c0.2,0.2,0.5,0.2,0.7,0.1C123.1,40.4,123.3,40.2,123.5,39.9z M125.4,39.3
		c-0.2,0-0.5,0.1-0.6,0.4c-0.1,0.3,0,0.5,0.2,0.7c0.4,0.3,0.7,0.6,1.2,0.8c0.2,0.1,0.5,0.1,0.6-0.1c0.2-0.2,0.3-0.5,0.2-0.8
		C126.9,40,125.7,39.3,125.4,39.3z M118.1,33.3c-0.3,0.1-0.6,0.2-0.7,0.5c-0.2,0.3,0.1,0.5,0.3,0.7c0.2,0.3,0.5,0.5,0.8,0.6
		c0.5,0.2,0.8,0,0.9-0.5C119.5,34.1,118.7,33.3,118.1,33.3z M120.6,35.1c-0.6,0-1,0.5-0.7,0.9c0.3,0.4,0.7,0.8,1.1,1
		c0.4,0.1,0.6-0.1,0.8-0.4c0.1-0.4,0.1-0.7-0.3-0.9C121.2,35.5,121,35.1,120.6,35.1z M122.5,38c0,0.5,1.1,1.3,1.6,1.2
		c0.4-0.1,0.3-0.4,0.4-0.7c0.1-0.2,0-0.3-0.2-0.5c-0.3-0.2-0.5-0.4-0.8-0.6c-0.3-0.2-0.5-0.1-0.7,0.1
		C122.6,37.6,122.4,37.7,122.5,38z"/>
	<path class="st1" d="M111.3,35.9c-0.8,0.9-1.5,1.8-2.5,2.6c-0.7,0.6-1.2,0.8-2,0c-0.1-0.1-0.3-0.2-0.4-0.3c-1-0.8-2-1.6-3-2.4
		c0-0.1-0.1-0.1-0.1-0.2c0.3,0,0.4-0.2,0.5-0.4c0.7-0.9,1.5-1.5,2.5-1.9c0.9-0.4,1.9-0.3,2.9-0.3c1.3,0,2.5-0.4,3.4-1.4
		c0.4-0.4,0.7-1,1-1.5c0.7-0.9,1.5-1.5,2.7-1.4c0.3,0,0.6,0,0.9-0.1c-0.6,1-1.4,1.8-2.1,2.7c-0.2,0.3-0.5,0.6-0.7,0.9
		c-0.2,0.2-0.4,0.3-0.5,0.6c-0.7,0.7-1.3,1.6-2,2.4C111.7,35.5,111.5,35.7,111.3,35.9z"/>
	<path class="st1" d="M116.3,27c0.1,0.1,0.1,0.2,0.2,0.3c-0.4,0-0.6-0.2-1-0.2c-1.3-0.1-2.3,0.4-3.1,1.2c-1.3,1.3-2.9,2.1-4.7,2.3
		c-1.5,0.2-2.9,0.7-4.1,1.8c-0.1,0.1-0.2,0.2-0.4,0.1c0.6-0.8,1.1-1.5,1.7-2.3c0.3-0.3,0.5-0.6,0.7-1c0.6-0.7,1.1-1.4,1.6-2.1
		c0.2-0.2,0.4-0.5,0.6-0.8c0.7-0.9,1.4-1.8,2.1-2.6c0.9-1.2,0.8-1,1.8-0.3C113.1,24.8,114.7,25.8,116.3,27z"/>
	<path class="st7" d="M103.2,32.6c0.1,0,0.3,0,0.4-0.1c1.1-1.1,2.5-1.7,4.1-1.8c1.9-0.2,3.4-1,4.7-2.3c0.9-0.8,1.9-1.4,3.1-1.2
		c0.3,0,0.6,0.2,1,0.2c0,0,0,0,0,0c0,0,0.1,0.1,0.1,0.1c0.4,0.1,0.6,0.4,0.7,0.7c0.1,0.2,0.2,0.5-0.2,0.6c-0.3,0.1-0.6,0.1-0.9,0.1
		c-1.2-0.1-2,0.4-2.7,1.4c-0.3,0.5-0.6,1-1,1.5c-0.9,1-2,1.4-3.4,1.4c-1,0-1.9-0.1-2.9,0.3c-1,0.4-1.9,1.1-2.5,1.9
		c-0.1,0.2-0.2,0.4-0.5,0.4c-0.4-0.2-0.8-0.5-1-0.8c-0.4-0.5,0.1-1,0.3-1.4c0.1-0.1,0.2-0.2,0.3-0.3c0,0,0.1-0.1,0.1-0.1
		c0,0,0,0,0,0c0,0,0.1-0.1,0.1-0.1c0,0,0,0,0,0c0,0,0.1-0.1,0.1-0.1c0,0,0,0,0,0C103.2,32.8,103.3,32.7,103.2,32.6L103.2,32.6z"/>
	<path class="st8" d="M98.7,45.8c1.1,0.8,2.1,1.5,3.2,2.3c1.1,0.7,2.1,1.4,3.2,2.1c1,0.6,2,1.3,3,1.9c0.2,0.1,0.4,0.2,0.6,0.3
		c-0.6,0.1-1.2,0-1.8,0c-2.1-0.2-4.2-0.8-6.1-1.8c-1.5-0.8-2.9-1.8-4.1-3C97.4,47,98.1,46.4,98.7,45.8z"/>
	<path class="st8" d="M88.9,35.4c0.8,0.4,1.3,1.1,1.8,1.8c1.6,2,3.2,4.1,5,5.9c0.4,0.4,0.9,0.6,1.1,1.1c-0.5,0.7-0.9,1.4-1.4,2.1
		c-0.7-0.9-1.5-1.8-2.2-2.7c-1.7-2.4-3.1-4.9-4.2-7.6C88.9,35.8,88.9,35.6,88.9,35.4z"/>
	<path class="st8" d="M103.3,35.8c1,0.8,2.1,1.5,3,2.4c-0.6,0.6-1.3,1.2-1.9,1.8c-0.8-0.8-1.6-1.6-2.6-2.3
		C102.3,37,102.9,36.4,103.3,35.8z"/>
	<path class="st1" d="M95.4,46.4c0.5-0.7,0.9-1.4,1.4-2.1c0.7,0.4,1.3,1.1,2,1.6c-0.7,0.6-1.3,1.2-2,1.8c-0.5,0.4-1,0.9-1.6,1.3
		c-0.4-0.2-0.6-0.5-1-0.6C94.6,47.7,95,47,95.4,46.4z"/>
	<path class="st9" d="M112.9,22.5c0.8-1.1,0.8-1.1,1.9-0.3c0.1,0.1,0.3,0.3,0.5,0.3c0.1,0.3,0.3,0.4,0.6,0.5c0.3,0.4,0.7,0.6,1,0.9
		c0.7,0.6,0.8,0.9,0.1,1.6c-0.1,0.1-0.1,0.2-0.2,0.2c-0.2,0.1-0.3,0-0.5-0.1c-1.1-0.8-2.2-1.7-3.3-2.5
		C112.8,22.9,112.7,22.7,112.9,22.5z"/>
	<path class="st10" d="M112.9,22.5c-0.2,0.3,0,0.4,0.2,0.6c1.1,0.8,2.2,1.7,3.3,2.5c0.1,0.1,0.3,0.2,0.5,0.1c0.2,0.3,0,0.6-0.2,0.9
		c-0.1,0.1-0.2,0.3-0.4,0.4c-1.5-1.2-3.2-2.2-4.6-3.5c0.1-0.2,0.3-0.4,0.4-0.6C112.3,22.6,112.5,22.5,112.9,22.5z"/>
	<path class="st9" d="M94.2,48.3c0.4,0.1,0.6,0.4,1,0.6c0,0.1,0,0.3,0,0.4c0.2,0.8-0.3,1.5-1.1,1.6c-0.7,0.1-1.4-0.4-1.5-1.1
		c-0.1-0.7,0.5-1.4,1.2-1.5C94,48.3,94.1,48.3,94.2,48.3z"/>
	<path class="st10" d="M105.6,29.3c-0.2,0.4-0.4,0.7-0.7,1c-0.7-0.6-1.6-1.1-2.2-1.9c-0.1-0.1-0.2-0.1-0.3-0.1
		c0.2-0.3,0.4-0.5,0.6-0.7C104,28.1,104.8,28.7,105.6,29.3z"/>
	<path class="st10" d="M107.8,26.4c-0.1,0.3-0.3,0.6-0.6,0.8c-0.2-0.1-0.4-0.3-0.6-0.4c-0.6-0.4-1.3-0.8-1.7-1.4
		c0.2-0.3,0.3-0.5,0.6-0.7C106.3,25.3,107.1,25.7,107.8,26.4z"/>
	<path class="st10" d="M113.8,32.9c0.1-0.2,0.3-0.4,0.5-0.6c0.5,0.3,1,0.6,1.5,0.9c0.1,0.1,0.3,0.2,0.4,0.2
		c-0.3,0.3-0.5,0.6-0.8,0.9c-0.3-0.4-0.8-0.6-1.2-0.9C114.1,33.2,113.9,33.1,113.8,32.9z"/>
	<path class="st10" d="M111.3,35.9c0.2-0.2,0.4-0.5,0.6-0.7c0.1,0.1,0.3,0.2,0.4,0.3c0.5,0.3,0.7,0.8,1.3,0.9
		c-0.2,0.2-0.4,0.4-0.6,0.7C112.5,36.7,111.9,36.3,111.3,35.9z"/>
	<path class="st1" d="M115.8,23c-0.3-0.1-0.5-0.2-0.6-0.5c0.3-0.3,0.7-0.6,1-0.8c0.1-0.1,0.2-0.1,0.3,0c0.1,0.1,0.1,0.2,0,0.4
		C116.4,22.3,116.1,22.7,115.8,23z"/>
	<path class="st9" d="M103.2,32.6c0,0.1,0,0.2-0.1,0.2C103.1,32.7,103.2,32.6,103.2,32.6z"/>
	<path class="st9" d="M103,32.9c0,0-0.1,0.1-0.1,0.1C102.9,32.9,103,32.9,103,32.9z"/>
	<path class="st9" d="M103.1,32.8c0,0-0.1,0.1-0.1,0.1C103,32.8,103.1,32.8,103.1,32.8z"/>
	<path class="st9" d="M102.9,33c0,0-0.1,0.1-0.1,0.1C102.9,33,102.9,33,102.9,33z"/>
	<path class="st9" d="M116.8,25.7c0,0-0.1-0.1-0.1-0.1C116.7,25.6,116.8,25.7,116.8,25.7z"/>
	<path class="st7" d="M97.3,38.8c1.1,0,2,0.5,2.6,1.1c1.1,1.1,2.2,2.1,3.3,3.2c0.7,0.6,1.3,1.4,1.3,2.5c0,0.2,0.1,0.3-0.1,0.5
		c-0.2,0.1-0.3,0-0.5-0.1c-0.5-0.3-0.8-0.8-1.2-1.2c-1.3-1.6-2.8-3.1-4.6-4.3c-0.3-0.2-0.5-0.2-0.8-0.3c-0.3-0.1-0.6-0.3-0.8-0.5
		c-0.3-0.4-0.2-0.5,0.2-0.6C96.9,38.8,97.2,38.8,97.3,38.8z"/>
	<path class="st6" d="M104.9,25.4c0.4,0.6,1.1,0.9,1.7,1.4c0.2,0.1,0.4,0.3,0.6,0.4c-0.5,0.7-1,1.5-1.6,2.1
		c-0.8-0.7-1.6-1.3-2.6-1.7C103.6,26.9,104.2,26.1,104.9,25.4z"/>
	<path class="st10" d="M103.2,20.9c0,0.5-0.6,0.9-1.1,0.7c-0.3-0.2-0.7-0.4-1-0.7c-0.2-0.1-0.5-0.2-0.3-0.5c0.2-0.3,0.4-0.8,0.8-0.7
		c0.6,0.2,1,0.6,1.4,1C103.2,20.8,103.2,20.8,103.2,20.9z"/>
	<path class="st10" d="M100.5,18.7c0,0.5-0.6,0.9-1,0.7c-0.3-0.2-0.6-0.4-0.9-0.6c-0.2-0.1-0.5-0.2-0.3-0.5c0.2-0.3,0.4-0.8,0.8-0.7
		c0.6,0.2,1,0.6,1.4,1C100.5,18.6,100.5,18.7,100.5,18.7z"/>
	<path class="st10" d="M104.8,23.5c-0.5-0.3-1-0.6-1.4-1c-0.3-0.2,0.1-0.5,0.2-0.7c0.1-0.2,0.4-0.4,0.7-0.2c0.4,0.3,0.8,0.6,1.2,0.9
		c0.2,0.1,0.2,0.3,0.1,0.5C105.4,23.2,105.3,23.5,104.8,23.5z"/>
	<path class="st10" d="M93.4,22.2c-0.4,0-1.5-0.7-1.6-1c-0.1-0.3,0.1-0.5,0.2-0.7c0.1-0.2,0.4-0.2,0.6-0.1c0.5,0.2,0.9,0.5,1.2,0.8
		c0.2,0.2,0.4,0.3,0.2,0.6C93.9,22,93.7,22.2,93.4,22.2z"/>
	<path class="st10" d="M96.1,18.8c-0.6-0.1-1-0.4-1.4-0.9c-0.2-0.2-0.1-0.6,0.1-0.8c0.2-0.3,0.5-0.3,0.8-0.2c0.5,0.2,0.8,0.6,1.2,1
		c0.1,0.1,0.1,0.3,0,0.5C96.6,18.7,96.3,18.8,96.1,18.8z"/>
	<path class="st10" d="M93.9,18.6c0.3,0,1.4,0.8,1.5,1c0.1,0.3-0.1,0.6-0.3,0.8c-0.2,0.2-0.4,0.1-0.6,0c-0.3-0.2-0.7-0.4-1-0.6
		c-0.2-0.1-0.4-0.2-0.3-0.6C93.3,18.9,93.4,18.6,93.9,18.6z"/>
	<path class="st10" d="M99.1,20.2c0,0.5-0.7,0.9-1.1,0.6c-0.3-0.1-0.5-0.3-0.7-0.5c-0.5-0.4-0.5-0.4-0.1-0.9c0.4-0.5,0.4-0.5,1-0.2
		c0.3,0.2,0.6,0.4,0.8,0.6C99,19.9,99.1,20,99.1,20.2z"/>
	<path class="st10" d="M102.8,22.9c0.1,0.1,0.2,0.1,0.3,0.2c0.3,0.2,0.5,0.4,0.8,0.6c0.2,0.2,0.5,0.3,0.3,0.7
		c-0.3,0.4-0.7,0.6-1,0.4c-0.2-0.1-0.4-0.3-0.7-0.4c-0.5-0.4-0.5-1,0.1-1.4C102.6,23,102.7,23,102.8,22.9z"/>
	<path class="st10" d="M97.5,17.4c-0.3,0-1.5-0.8-1.5-1c0-0.3,0-0.6,0.2-0.8c0.2-0.2,0.4-0.2,0.7-0.1c0.4,0.2,0.8,0.5,1.1,0.9
		c0.2,0.2,0.3,0.4,0.1,0.6C98,17.3,97.8,17.4,97.5,17.4z"/>
	<path class="st10" d="M100.9,23.1c-0.5-0.2-1-0.5-1.3-0.9c-0.2-0.3,0.3-0.6,0.4-0.9c0.1-0.2,0.3-0.1,0.5,0c0.3,0.2,0.6,0.4,0.9,0.6
		c0.2,0.1,0.5,0.3,0.3,0.6C101.6,22.8,101.3,23.1,100.9,23.1z"/>
	<path class="st10" d="M97.6,21.8c0,0.6-0.6,0.9-1,0.7c-0.3-0.2-0.6-0.4-1-0.6c-0.2-0.2-0.3-0.3-0.1-0.6c0.3-0.3,0.4-0.8,0.9-0.6
		C97,21,97.5,21.3,97.6,21.8z"/>
	<path class="st10" d="M98.9,22.9c0.4,0,1.3,0.8,1.4,1c0.1,0.3-0.2,0.5-0.4,0.7c-0.2,0.2-0.4,0.2-0.6,0c-0.3-0.2-0.7-0.4-1-0.6
		c-0.3-0.2-0.3-0.3-0.1-0.6C98.5,23.2,98.6,22.9,98.9,22.9z"/>
	<path class="st10" d="M102.1,26.6c-0.5-0.3-1-0.5-1.4-0.9c0,0,0-0.1,0-0.2c0.1-0.6,0.9-0.9,1.4-0.6c0.2,0.2,0.4,0.3,0.6,0.5
		c0.2,0.2,0.2,0.4,0.1,0.6C102.6,26.3,102.4,26.5,102.1,26.6z"/>
	<path class="st10" d="M98.3,26.3c-0.4-0.2-0.9-0.5-1.2-0.9c-0.2-0.2,0-0.6,0.2-0.8c0.2-0.2,0.4-0.2,0.6-0.1c0.4,0.2,0.7,0.5,1,0.8
		c0.1,0.2,0.2,0.4,0.1,0.6C98.8,26.2,98.6,26.3,98.3,26.3z"/>
	<path class="st10" d="M95,22.3c0.5,0.2,1,0.6,1.3,1.1c0.1,0.2,0,0.4-0.1,0.5c-0.2,0.2-0.4,0.3-0.7,0.1c-0.3-0.2-0.7-0.4-1-0.7
		c-0.3-0.3,0-0.5,0-0.8C94.5,22.4,94.8,22.3,95,22.3z"/>
	<path class="st10" d="M100.7,28.1c-0.4-0.2-0.9-0.5-1.2-0.9c-0.2-0.2,0-0.6,0.2-0.8c0.2-0.2,0.4-0.2,0.7,0c0.4,0.2,0.6,0.4,0.9,0.7
		c0.2,0.2,0.3,0.4,0.2,0.6C101.3,28,101.1,28.1,100.7,28.1z"/>
	<path class="st6" d="M113.7,36.4c-0.6-0.1-0.9-0.6-1.3-0.9c-0.2-0.1-0.3-0.2-0.4-0.3c0.6-0.8,1.3-1.6,2-2.4c0,0.3,0.2,0.4,0.4,0.5
		c0.4,0.3,0.9,0.5,1.2,0.9C114.8,35,114.3,35.7,113.7,36.4z"/>
	<path class="st10" d="M114.7,40c-0.3,0-1.4-0.8-1.5-1.1c0-0.1,0-0.3,0-0.4c0.3-0.6,1.1-0.8,1.6-0.4c0.2,0.1,0.4,0.3,0.6,0.4
		c0.5,0.4,0.5,0.4,0.2,0.9C115.5,39.6,114.9,40,114.7,40z"/>
	<path class="st10" d="M118.3,40.8c-0.1,0.3-0.3,0.6-0.6,0.7c-0.3,0.1-0.6,0.4-0.9,0.1c-0.3-0.3-0.7-0.5-1-0.7
		c-0.3-0.2-0.3-0.5-0.1-0.8c0.5-0.5,0.9-0.8,1.5-0.3c0.2,0.2,0.5,0.4,0.8,0.5C118.2,40.6,118.3,40.7,118.3,40.8z"/>
	<path class="st10" d="M119.3,41.8c0.1,0,0.3,0.1,0.4,0.1c0.3,0.2,0.6,0.4,0.8,0.6c0.2,0.2,0.6,0.2,0.4,0.6
		c-0.3,0.6-0.8,0.9-1.2,0.7c-0.5-0.2-0.9-0.5-1.2-0.9c-0.1-0.1-0.2-0.2-0.1-0.4C118.4,42.3,119,41.8,119.3,41.8z"/>
	<path class="st10" d="M115.7,36.4c0.3,0,1.3,0.7,1.4,0.9c0.1,0.4-0.2,0.7-0.5,0.9c-0.2,0.2-0.4,0.4-0.7,0.2
		c-0.4-0.3-0.8-0.5-1.1-0.8c-0.1-0.1-0.2-0.2-0.1-0.4C114.9,36.8,115.3,36.5,115.7,36.4z"/>
	<path class="st10" d="M123.1,45.1c-0.1,0.8-0.6,1.1-1.2,0.8c-0.4-0.2-0.7-0.4-0.9-0.7c-0.2-0.2-0.4-0.4-0.3-0.7
		c0.2-0.3,0.5-0.4,0.9-0.5c0.3,0,1.4,0.8,1.5,1C123.1,45,123.1,45.1,123.1,45.1z"/>
	<path class="st10" d="M118.1,38.3c0.3,0,1.4,0.7,1.4,1c0,0.4-0.3,0.7-0.5,0.9c-0.2,0.2-0.4,0.3-0.7,0.1c-0.3-0.3-0.6-0.5-1-0.7
		c-0.3-0.2-0.3-0.5,0-0.7C117.6,38.5,117.8,38.4,118.1,38.3z"/>
	<path class="st10" d="M120.7,40.5c0.3,0,1.4,0.7,1.4,0.9c0.1,0.4-0.2,0.7-0.5,0.9c-0.2,0.2-0.4,0.3-0.7,0.1c-0.3-0.3-0.7-0.5-1-0.7
		c-0.3-0.2-0.3-0.5-0.1-0.7C120.2,40.7,120.4,40.5,120.7,40.5z"/>
	<path class="st10" d="M118.5,35.8c-0.2,0.3-0.4,0.6-0.7,0.8c-0.3,0.2-0.5,0.2-0.8,0c-0.2-0.2-0.4-0.3-0.6-0.4
		c-0.3-0.2-0.5-0.5-0.2-0.9c0.4-0.4,0.8-0.7,1.2-0.4c0.3,0.2,0.6,0.4,0.9,0.6C118.3,35.6,118.4,35.6,118.5,35.8z"/>
	<path class="st10" d="M124.4,43.7c0,0.3-0.1,0.6-0.4,0.7c-0.3,0.2-0.6,0.1-0.9-0.1c-0.3-0.2-0.6-0.5-0.9-0.8
		c-0.3-0.3-0.2-0.5,0.1-0.7c0.3-0.3,0.7-0.4,1.1-0.1c0.3,0.2,0.6,0.4,0.8,0.6C124.4,43.4,124.5,43.5,124.4,43.7z"/>
	<path class="st10" d="M120.9,37.7c-0.1,0.3-0.3,0.6-0.7,0.8c-0.2,0.1-0.5,0.2-0.7,0c-0.2-0.1-0.4-0.3-0.5-0.4
		c-0.5-0.4-0.5-0.6-0.2-1c0.4-0.5,0.6-0.5,1.1-0.2c0.3,0.2,0.5,0.3,0.8,0.5C120.7,37.4,120.9,37.5,120.9,37.7z"/>
	<path class="st10" d="M124.9,42.9c-0.6-0.2-1.1-0.6-1.5-1.1c-0.2-0.3,0.1-0.6,0.3-0.8c0.2-0.2,0.4-0.2,0.6-0.1
		c0.3,0.2,0.7,0.4,1,0.6c0.4,0.2,0.4,0.5,0.3,0.8C125.5,42.7,125.3,42.8,124.9,42.9z"/>
	<path class="st10" d="M123.5,39.9c-0.1,0.3-0.3,0.6-0.7,0.8c-0.3,0.2-0.5,0.1-0.7-0.1c-0.2-0.1-0.4-0.3-0.5-0.4
		c-0.3-0.3-0.5-0.6-0.2-1c0.4-0.5,0.6-0.5,1.1-0.2c0.3,0.2,0.5,0.3,0.8,0.5C123.3,39.6,123.5,39.7,123.5,39.9z"/>
	<path class="st10" d="M125.4,39.3c0.4,0,1.5,0.7,1.6,1c0.1,0.3,0,0.6-0.2,0.8c-0.2,0.2-0.4,0.2-0.6,0.1c-0.4-0.2-0.8-0.5-1.2-0.8
		c-0.2-0.2-0.3-0.4-0.2-0.7C124.9,39.4,125.2,39.3,125.4,39.3z"/>
	<path class="st10" d="M118.1,33.3c0.6,0,1.4,0.9,1.3,1.3c-0.1,0.5-0.5,0.7-0.9,0.5c-0.3-0.1-0.6-0.4-0.8-0.6
		c-0.2-0.2-0.4-0.4-0.3-0.7C117.5,33.4,117.8,33.3,118.1,33.3z"/>
	<path class="st10" d="M120.6,35.1c0.4,0,0.6,0.4,0.9,0.5c0.4,0.2,0.5,0.5,0.3,0.9c-0.1,0.4-0.4,0.6-0.8,0.4c-0.5-0.2-0.9-0.5-1.1-1
		C119.6,35.6,120,35.1,120.6,35.1z"/>
	<path class="st10" d="M122.5,38c0-0.2,0.1-0.4,0.3-0.5c0.2-0.1,0.5-0.2,0.7-0.1c0.3,0.2,0.6,0.4,0.8,0.6c0.1,0.1,0.3,0.2,0.2,0.5
		c-0.1,0.3-0.1,0.6-0.4,0.7C123.6,39.3,122.5,38.4,122.5,38z"/>
</g>
</svg>
